<svg width="185" height="44" viewBox="0 0 185 44" fill="none" xmlns="http://www.w3.org/2000/svg">
<path d="M62.6735 12.2577C59.8413 12.2577 57.6709 13.1444 56.1622 14.9178C54.68 16.6647 53.9388 19.0998 53.9388 22.2231C53.9388 23.7053 54.1109 25.0685 54.455 26.3125C54.8255 27.5301 55.3549 28.5756 56.0431 29.449C56.7577 30.3225 57.6312 31.0107 58.6635 31.5136C59.7222 31.99 60.953 32.2282 62.3558 32.2282C63.2293 32.2282 63.9837 32.2018 64.6189 32.1488C65.2542 32.0694 65.7571 31.9768 66.1276 31.8709V21.9849H71.1302V35.2059C70.442 35.4706 69.2774 35.7618 67.6363 36.0794C65.9953 36.397 64.1028 36.5558 61.9588 36.5558C59.9737 36.5558 58.1606 36.2382 56.5195 35.603C54.8785 34.9677 53.4756 34.0413 52.311 32.8238C51.1729 31.6062 50.2862 30.1107 49.6509 28.3373C49.0157 26.564 48.6981 24.5259 48.6981 22.2231C48.6981 19.9203 49.0422 17.8823 49.7303 16.1089C50.445 14.3355 51.4111 12.84 52.6286 11.6224C53.8462 10.3784 55.2755 9.43879 56.9166 8.80354C58.5576 8.16829 60.3045 7.85067 62.1573 7.85067C63.4278 7.85067 64.5527 7.94331 65.5321 8.12859C66.5379 8.2874 67.3981 8.47268 68.1128 8.68443C68.8274 8.89618 69.4097 9.12116 69.8597 9.35938C70.3361 9.5976 70.667 9.76964 70.8523 9.87552L69.3435 13.9649C68.5495 13.4885 67.5569 13.0915 66.3658 12.7738C65.2012 12.4297 63.9704 12.2577 62.6735 12.2577ZM87.3137 19.563C86.9167 19.4307 86.3609 19.2983 85.6462 19.166C84.958 19.0072 84.1507 18.9278 83.2243 18.9278C82.695 18.9278 82.1259 18.9807 81.5171 19.0866C80.9348 19.1925 80.5246 19.2851 80.2863 19.3645V36H75.4823V16.228C76.4087 15.8839 77.5601 15.5663 78.9364 15.2751C80.3393 14.9575 81.8877 14.7987 83.5817 14.7987C83.8993 14.7987 84.2699 14.8251 84.6934 14.8781C85.1169 14.9045 85.5403 14.9575 85.9638 15.0369C86.3873 15.0898 86.7976 15.1692 87.1946 15.2751C87.5917 15.3545 87.9093 15.4339 88.1475 15.5133L87.3137 19.563ZM89.1528 25.717C89.1528 23.8906 89.4175 22.2893 89.9468 20.9129C90.5027 19.5365 91.2306 18.3984 92.1305 17.4985C93.0304 16.5721 94.0627 15.8839 95.2273 15.4339C96.3919 14.9575 97.583 14.7193 98.8006 14.7193C101.659 14.7193 103.883 15.606 105.471 17.3794C107.085 19.1528 107.893 21.7996 107.893 25.3199C107.893 25.5846 107.879 25.889 107.853 26.2331C107.853 26.5507 107.84 26.8419 107.813 27.1066H94.1156C94.248 28.7741 94.8303 30.071 95.8626 30.9974C96.9213 31.8974 98.4433 32.3473 100.428 32.3473C101.593 32.3473 102.652 32.2415 103.605 32.0297C104.584 31.818 105.352 31.593 105.907 31.3548L106.543 35.2853C106.278 35.4177 105.907 35.5633 105.431 35.7221C104.981 35.8544 104.452 35.9735 103.843 36.0794C103.261 36.2117 102.625 36.3176 101.937 36.397C101.249 36.4764 100.548 36.5161 99.8329 36.5161C98.0065 36.5161 96.4184 36.2515 95.0685 35.7221C93.7186 35.1662 92.6069 34.4119 91.7335 33.459C90.86 32.4797 90.2115 31.3415 89.788 30.0446C89.3645 28.7211 89.1528 27.2786 89.1528 25.717ZM103.088 23.573C103.088 22.9113 102.996 22.2893 102.811 21.707C102.625 21.0982 102.347 20.5821 101.977 20.1586C101.633 19.7086 101.196 19.3645 100.667 19.1263C100.164 18.8616 99.5549 18.7293 98.8403 18.7293C98.0992 18.7293 97.4507 18.8748 96.8949 19.166C96.339 19.4307 95.8626 19.788 95.4655 20.238C95.095 20.6879 94.8038 21.2041 94.5921 21.7864C94.3803 22.3687 94.2348 22.9642 94.1554 23.573H103.088ZM110.644 25.717C110.644 23.8906 110.908 22.2893 111.438 20.9129C111.993 19.5365 112.721 18.3984 113.621 17.4985C114.521 16.5721 115.553 15.8839 116.718 15.4339C117.883 14.9575 119.074 14.7193 120.291 14.7193C123.15 14.7193 125.373 15.606 126.961 17.3794C128.576 19.1528 129.383 21.7996 129.383 25.3199C129.383 25.5846 129.37 25.889 129.344 26.2331C129.344 26.5507 129.33 26.8419 129.304 27.1066H115.606C115.739 28.7741 116.321 30.071 117.353 30.9974C118.412 31.8974 119.934 32.3473 121.919 32.3473C123.084 32.3473 124.142 32.2415 125.095 32.0297C126.075 31.818 126.842 31.593 127.398 31.3548L128.033 35.2853C127.769 35.4177 127.398 35.5633 126.922 35.7221C126.472 35.8544 125.942 35.9735 125.334 36.0794C124.751 36.2117 124.116 36.3176 123.428 36.397C122.74 36.4764 122.038 36.5161 121.324 36.5161C119.497 36.5161 117.909 36.2515 116.559 35.7221C115.209 35.1662 114.098 34.4119 113.224 33.459C112.351 32.4797 111.702 31.3415 111.279 30.0446C110.855 28.7211 110.644 27.2786 110.644 25.717ZM124.579 23.573C124.579 22.9113 124.487 22.2893 124.301 21.707C124.116 21.0982 123.838 20.5821 123.468 20.1586C123.123 19.7086 122.687 19.3645 122.157 19.1263C121.654 18.8616 121.046 18.7293 120.331 18.7293C119.59 18.7293 118.941 18.8748 118.386 19.166C117.83 19.4307 117.353 19.788 116.956 20.238C116.586 20.6879 116.295 21.2041 116.083 21.7864C115.871 22.3687 115.725 22.9642 115.646 23.573H124.579ZM140.512 36.397C139.082 36.3706 137.891 36.2117 136.938 35.9206C136.012 35.6294 135.271 35.2192 134.715 34.6898C134.159 34.134 133.762 33.459 133.524 32.665C133.312 31.8444 133.206 30.918 133.206 29.8858V5.98464L138.01 5.19058V28.9726C138.01 29.5549 138.05 30.0446 138.129 30.4416C138.235 30.8386 138.407 31.1827 138.646 31.4739C138.884 31.7386 139.201 31.9503 139.598 32.1091C140.022 32.2415 140.551 32.3473 141.186 32.4267L140.512 36.397ZM151.187 32.6253C152.669 32.6253 153.794 32.5459 154.561 32.387V27.0669C154.297 26.9875 153.913 26.908 153.41 26.8286C152.907 26.7492 152.351 26.7095 151.742 26.7095C151.213 26.7095 150.671 26.7492 150.115 26.8286C149.585 26.908 149.096 27.0536 148.646 27.2654C148.222 27.4771 147.878 27.7815 147.613 28.1785C147.349 28.5491 147.216 29.0255 147.216 29.6078C147.216 30.746 147.574 31.54 148.288 31.99C149.003 32.4135 149.969 32.6253 151.187 32.6253ZM150.79 14.7193C152.378 14.7193 153.714 14.9178 154.8 15.3148C155.885 15.7118 156.745 16.2677 157.38 16.9823C158.042 17.697 158.505 18.5704 158.77 19.6027C159.061 20.6085 159.207 21.7202 159.207 22.9378V35.5236C158.466 35.6824 157.341 35.8677 155.832 36.0794C154.35 36.3176 152.669 36.4367 150.79 36.4367C149.546 36.4367 148.407 36.3176 147.375 36.0794C146.343 35.8412 145.456 35.4574 144.715 34.928C144 34.3987 143.431 33.7105 143.008 32.8635C142.611 32.0165 142.412 30.971 142.412 29.7269C142.412 28.5359 142.637 27.5301 143.087 26.7095C143.564 25.889 144.199 25.2273 144.993 24.7244C145.787 24.195 146.7 23.8245 147.733 23.6127C148.791 23.3745 149.89 23.2554 151.028 23.2554C151.557 23.2554 152.113 23.2951 152.695 23.3745C153.278 23.4274 153.9 23.5333 154.561 23.6921V22.8981C154.561 22.3422 154.495 21.8128 154.363 21.3099C154.231 20.807 153.992 20.3703 153.648 19.9997C153.331 19.6027 152.894 19.2983 152.338 19.0866C151.809 18.8748 151.134 18.769 150.313 18.769C149.202 18.769 148.182 18.8484 147.256 19.0072C146.33 19.166 145.575 19.3513 144.993 19.563L144.397 15.6721C145.006 15.4604 145.893 15.2486 147.058 15.0369C148.222 14.8251 149.466 14.7193 150.79 14.7193ZM177.676 25.5581C177.676 23.5201 177.265 21.9055 176.445 20.7144C175.651 19.5233 174.38 18.9278 172.633 18.9278C171.839 18.9278 171.085 19.0469 170.37 19.2851C169.682 19.5233 169.126 19.788 168.703 20.0792V32.0297C169.047 32.1091 169.484 32.1885 170.013 32.2679C170.569 32.3209 171.23 32.3473 171.998 32.3473C173.771 32.3473 175.161 31.7518 176.167 30.5607C177.173 29.3432 177.676 27.6756 177.676 25.5581ZM182.599 25.6376C182.599 27.3051 182.347 28.8138 181.844 30.1637C181.368 31.4871 180.667 32.6253 179.74 33.5781C178.84 34.531 177.742 35.2589 176.445 35.7618C175.148 36.2647 173.679 36.5161 172.038 36.5161C170.45 36.5161 168.928 36.397 167.472 36.1588C166.043 35.9206 164.852 35.6559 163.899 35.3648V5.98464L168.703 5.19058V15.9501C169.259 15.6589 169.934 15.3942 170.728 15.156C171.548 14.9178 172.448 14.7987 173.427 14.7987C174.883 14.7987 176.18 15.0634 177.318 15.5927C178.483 16.0956 179.449 16.8235 180.217 17.7764C180.984 18.7293 181.566 19.8806 181.963 21.2305C182.387 22.554 182.599 24.023 182.599 25.6376Z" fill="white"/>
<g clip-path="url(#clip0)">
<path opacity="0.5" d="M28.5506 19.1831L28.5561 19.1849C29.8672 19.6137 31.6387 19.8999 33.3048 20.1691C33.8105 20.2508 34.3065 20.3309 34.7769 20.413C35.8383 20.5982 36.8078 20.7959 37.6182 21.041C38.4482 21.2921 38.9671 21.552 39.2418 21.7853C39.5527 22.0642 39.7558 22.5593 39.305 23.8364C38.8593 25.0994 37.9468 26.5742 36.9297 28.1446C34.9636 31.177 33.0667 33.7925 30.5659 35.9431C29.285 37.0299 27.9493 37.8917 26.8323 38.2284C26.286 38.393 25.8856 38.4033 25.6059 38.337C25.3624 38.2793 25.1186 38.1445 24.8766 37.8011C24.5886 37.3925 24.3122 36.7106 24.0166 35.718C23.8465 35.1468 23.7001 34.587 23.5439 33.9897C23.4201 33.516 23.2901 33.0187 23.1372 32.4735C22.8152 31.3255 22.4257 30.1055 21.8837 29.0132C21.3429 27.9232 20.6023 26.8609 19.5233 26.1307L19.5183 26.1274C18.4425 25.406 17.1839 25.1162 15.9892 25.0235C14.7891 24.9305 13.548 25.0289 12.4277 25.1704C11.7586 25.2549 11.049 25.3677 10.4241 25.467C10.0503 25.5264 9.70681 25.581 9.42033 25.6219C9.17545 25.6568 8.95861 25.6843 8.76781 25.7035C8.83319 25.5236 8.9167 25.3081 9.0212 25.0501C9.07623 24.9143 9.13541 24.7707 9.19754 24.6199C9.74177 23.2992 10.5126 21.4287 10.7079 19.4111C10.9148 17.3399 10.5206 15.1624 10.1996 13.3893C10.1717 13.2353 10.1444 13.0843 10.118 12.9368C9.94514 11.9679 9.81308 11.1506 9.78107 10.4556C9.74862 9.75117 9.83096 9.34943 9.94141 9.12757C10.1403 8.74777 10.7977 8.29819 12.3192 8.21705C13.7448 8.14104 15.4806 8.42978 17.0125 8.95124C20.0152 9.97335 22.0186 11.8492 23.1172 13.5973C23.3668 13.9945 23.5722 14.3872 23.8007 14.8241C23.8279 14.876 23.8553 14.9285 23.8832 14.9817C24.1353 15.4625 24.4251 16.0041 24.7966 16.5249C25.5904 17.6377 26.6924 18.5671 28.5506 19.1831ZM8.5709 26.4024C8.57098 26.4079 8.5708 26.4108 8.57069 26.4109C8.57057 26.411 8.57053 26.4082 8.5709 26.4024Z" stroke="white" stroke-width="2.89029"/>
<path d="M23.4087 15.809L23.413 15.8051C24.4978 14.8321 25.695 13.3631 26.8264 11.9749C27.171 11.552 27.5095 11.1366 27.8369 10.745C28.5713 9.86654 29.2708 9.07646 29.9306 8.45745C30.6061 7.82385 31.1321 7.47428 31.5103 7.33969C31.9852 7.18425 32.5838 7.29575 33.5267 8.39743C34.4596 9.48734 35.3359 11.1192 36.2392 12.8867C37.9852 16.3071 39.3886 19.4502 40.0411 22.9056C40.3613 24.6652 40.4471 26.3659 40.1595 27.5899C40.0186 28.1895 39.8099 28.5795 39.5861 28.8165C39.388 29.0265 39.1138 29.1883 38.6489 29.2305C38.1045 29.2798 37.3183 29.1686 36.2474 28.9132C35.6317 28.7664 35.0358 28.6028 34.4014 28.4288C33.8997 28.2911 33.3739 28.1468 32.7951 27.9989C31.5697 27.6858 30.2473 27.3979 28.9635 27.3169C27.6822 27.236 26.3292 27.353 25.1038 27.9484L25.0984 27.951C23.8826 28.5481 22.9584 29.5384 22.2436 30.5809C21.5258 31.6279 20.9601 32.8153 20.4962 33.9186C20.2188 34.5783 19.9474 35.2868 19.7075 35.9128C19.5635 36.2887 19.4308 36.6348 19.3151 36.9229C19.1938 37.2249 19.0843 37.4826 18.9833 37.6981C18.8321 37.523 18.6484 37.2966 18.4234 37.0081C18.3275 36.885 18.2267 36.7542 18.121 36.617C17.1945 35.4143 15.8916 33.7229 14.1513 32.4802C12.367 31.1978 10.1666 30.4082 8.36342 29.7611C8.2075 29.7052 8.05456 29.6503 7.90511 29.5963C6.9226 29.2409 6.09554 28.9266 5.43348 28.584C4.76264 28.2368 4.42086 27.9389 4.26319 27.7005C3.99224 27.274 3.94658 26.3907 4.68371 24.9407C5.377 23.5769 6.57226 22.1251 7.87195 20.9872C10.4228 18.754 13.2318 17.9004 15.4423 17.8176C15.9439 17.7988 16.4178 17.8185 16.9406 17.8403C17.0028 17.8429 17.0657 17.8455 17.1293 17.8481C17.7054 17.8715 18.3519 17.8923 19.0215 17.8278C20.4476 17.6905 21.8697 17.1782 23.4087 15.809ZM19.4526 38.1621C19.4575 38.1647 19.46 38.1664 19.46 38.1665C19.4601 38.1666 19.4576 38.1653 19.4526 38.1621Z" stroke="white" stroke-width="2.89029"/>
<path opacity="0.8" d="M28.5337 24.2598L28.5363 24.2649C29.1094 25.395 30.0747 26.7323 30.9751 27.9797C31.2468 28.3561 31.5126 28.7243 31.76 29.0761C32.3233 29.8775 32.8165 30.6238 33.1765 31.2962C33.546 31.9861 33.7027 32.468 33.7276 32.7683C33.7432 33.0672 33.6163 33.4799 32.5212 34.0037C31.4373 34.5221 29.9159 34.8814 28.2474 35.2382C25.0324 35.924 22.1425 36.3833 19.1674 36.1593C17.6497 36.0349 16.2563 35.7317 15.3439 35.2419C14.899 35.0031 14.6551 34.7658 14.5335 34.5685C14.4314 34.4029 14.3662 34.1915 14.4263 33.8441C14.5001 33.418 14.752 32.817 15.2 31.9889C15.4581 31.5119 15.7218 31.0615 16.0043 30.5791C16.2293 30.1949 16.4662 29.7904 16.7215 29.336C17.2543 28.3878 17.7938 27.3432 18.152 26.2794C18.5095 25.2179 18.7229 24.0332 18.4925 22.8384L18.4914 22.8325C18.2574 21.6456 17.6189 20.629 16.9015 19.7908C16.1805 18.9486 15.3102 18.2068 14.4952 17.5745C14.0094 17.1976 13.4748 16.8096 13.0066 16.4699C12.7285 16.2681 12.4739 16.0833 12.2668 15.9279C12.1562 15.8449 12.0547 15.7672 11.9619 15.6944C12.0759 15.6434 12.2049 15.5874 12.3508 15.5256C12.473 15.4739 12.6033 15.4197 12.7403 15.3626C13.9394 14.8636 15.658 14.1483 17.0984 12.9622C18.5797 11.7499 19.7379 10.0795 20.6709 8.73371C20.7525 8.61599 20.8324 8.50075 20.9106 8.38852C21.4235 7.65292 21.8601 7.04841 22.2804 6.58753C22.7065 6.12026 22.9998 5.93353 23.1828 5.87177C23.4869 5.77752 24.1508 5.87054 25.1733 6.78946C26.1251 7.64492 27.0475 8.93383 27.6923 10.2443C28.9536 12.8073 29.0332 15.274 28.6213 17.0791C28.5275 17.4902 28.4084 17.8704 28.2741 18.2994C28.2582 18.3501 28.2421 18.4015 28.2258 18.4538C28.0786 18.9256 27.914 19.4684 27.8163 20.0524C27.6064 21.3067 27.7216 22.6424 28.5337 24.2598ZM11.2279 16.0821C11.2243 16.0857 11.2222 16.0874 11.2221 16.0874C11.2219 16.0874 11.2238 16.0856 11.2279 16.0821Z" stroke="white" stroke-width="2.89029"/>
</g>
<defs>
<clipPath id="clip0">
<rect width="44.4" height="37.9024" fill="white" transform="translate(0 3.69995)"/>
</clipPath>
</defs>
</svg>
