<svg width="510" height="140" viewBox="0 0 510 140" fill="none" xmlns="http://www.w3.org/2000/svg">
<path d="M1.00029 22.9352L29.2225 17.2852C57.4447 11.6352 113.889 0.335209 170.334 2.20677C226.778 4.21958 283.223 19.0508 339.667 22.9352C396.111 26.8196 452.556 19.0508 480.778 15.4136L509 11.6352L509 131.235C509 135.654 505.418 139.235 501 139.235H480.778C452.556 139.235 396.111 139.235 339.667 139.235C283.222 139.235 226.778 139.235 170.333 139.235C113.889 139.235 57.4444 139.235 29.2222 139.235H9.00002C4.58173 139.235 1.00001 135.653 1.00002 131.235L1.00029 22.9352Z" fill="#0070C9"/>
<path d="M1 23.9352L29.2222 18.2852C57.4444 12.6352 113.889 1.33521 170.333 3.20677C226.778 5.21958 283.222 20.0508 339.667 23.9352C396.111 27.8196 452.556 20.0508 480.778 16.4136L509 12.6352" stroke="#EAD94C" stroke-width="6"/>
</svg>
