<svg width="123" height="147" viewBox="0 0 123 147" fill="none" xmlns="http://www.w3.org/2000/svg">
<path d="M62 103C63.4401 101.357 63.6171 96.1548 64.2101 94.166C66.3278 87.0754 70.5634 81.7142 75.9002 76.8719C81.3216 71.9431 85.8113 66.3225 87.6749 58.7131C92.1646 39.776 83.3547 23.3466 62.4312 22.4819C53.0283 22.136 44.9807 24.4707 38.2039 31.3884C30.834 38.9113 29.3093 47.6448 31.9353 57.5889C34.7307 68.1384 38.2886 78.4284 37.3568 89.6695C37.0179 93.3878 39.9828 95.636 44.5572 96.5872C48.4539 97.3654 52.3506 98.4031 56.1626 99.5272C62.6853 101.516 63.2783 104.975 58.1109 109.904" fill="#FAAD14"/>
<path d="M62 103C63.4401 101.357 63.6171 96.1548 64.2101 94.166C66.3278 87.0754 70.5634 81.7142 75.9002 76.8719C81.3216 71.9431 85.8113 66.3225 87.6749 58.7131C92.1646 39.776 83.3547 23.3466 62.4312 22.4819C53.0283 22.136 44.9807 24.4707 38.2039 31.3884C30.834 38.9113 29.3093 47.6448 31.9353 57.5889C34.7307 68.1384 38.2886 78.4284 37.3568 89.6695C37.0179 93.3878 39.9828 95.636 44.5572 96.5872C48.4539 97.3654 52.3506 98.4031 56.1626 99.5272C62.6853 101.516 63.2783 104.975 58.1109 109.904" stroke="white" stroke-width="2" stroke-miterlimit="10" stroke-linecap="round" stroke-linejoin="round"/>
<path d="M7.28177 109.039C5.164 110.768 3.04623 112.498 0.84375 114.227C1.09788 114.486 1.43673 114.746 1.69086 114.919C1.94499 116.129 1.77557 117.859 2.45325 118.291C4.48631 119.588 7.19706 121.577 9.06069 121.058C11.0938 120.539 13.1268 117.686 13.8045 115.438C14.5669 112.584 12.3644 110.509 9.65367 109.558C9.06069 109.298 8.38301 109.212 7.70532 109.039" stroke="white" stroke-width="2" stroke-miterlimit="10" stroke-linecap="round" stroke-linejoin="round"/>
<path d="M73.5261 142.157C74.2885 146.653 77.5922 146.308 81.9125 145.962C81.9972 143.886 82.6749 141.379 81.9972 139.303C81.6584 138.266 79.0323 137.574 77.3381 137.315C74.2885 136.882 74.1191 139.649 73.4414 141.725" stroke="white" stroke-width="2" stroke-miterlimit="10" stroke-linecap="round" stroke-linejoin="round"/>
<path d="M53.7032 33.4637C43.4532 33.5502 37.8623 43.1484 42.0978 53.179" stroke="white" stroke-width="2" stroke-miterlimit="10" stroke-linecap="round" stroke-linejoin="round"/>
<path d="M38.1992 119.934C38.1992 127.544 42.0959 131.175 47.8562 129.36C51.4141 128.235 52.2612 125.555 52.6848 122.355" stroke="white" stroke-width="2" stroke-miterlimit="10" stroke-linecap="round" stroke-linejoin="round"/>
<path d="M37.6914 105.58C42.0117 106.877 46.4166 108.26 50.7369 109.471C52.7699 110.076 54.8877 110.509 57.0054 110.941" stroke="white" stroke-width="2" stroke-miterlimit="10" stroke-linecap="round" stroke-linejoin="round"/>
<path d="M37.2674 107.05C35.0649 107.915 31.6765 106.964 31.4224 111.028C31.2529 114.227 32.8624 116.13 35.3191 117.427C41.2488 120.626 47.6021 121.923 54.2096 121.318C59.4616 120.799 60.817 117.081 58.1062 111.979" stroke="white" stroke-width="2" stroke-miterlimit="10" stroke-linecap="round" stroke-linejoin="round"/>
<path d="M114.696 72.9806C109.189 71.3376 103.768 69.6947 98.2617 68.0518" stroke="white" stroke-width="2" stroke-miterlimit="10" stroke-linecap="round" stroke-linejoin="round"/>
<path d="M18.887 39.4302C13.3808 37.4414 7.87461 35.4526 2.45312 33.4637" stroke="white" stroke-width="2" stroke-miterlimit="10" stroke-linecap="round" stroke-linejoin="round"/>
<path d="M22.7013 70.041C17.5339 71.684 12.3666 73.3269 7.19922 74.9698" stroke="white" stroke-width="2" stroke-miterlimit="10" stroke-linecap="round" stroke-linejoin="round"/>
<path d="M113.679 36.4037C109.189 36.7496 104.615 37.0955 100.125 37.3549" stroke="white" stroke-width="2" stroke-miterlimit="10" stroke-linecap="round" stroke-linejoin="round"/>
<path d="M42.0977 0.864319C44.639 5.18785 47.265 9.42491 49.8063 13.7484" stroke="white" stroke-width="2" stroke-miterlimit="10" stroke-linecap="round" stroke-linejoin="round"/>
<path d="M82.7582 3.80432C81.1487 8.12785 79.5392 12.3649 77.9297 16.6884" stroke="white" stroke-width="2" stroke-miterlimit="10" stroke-linecap="round" stroke-linejoin="round"/>
<path d="M82.7578 86.8159C84.0285 91.1394 85.2991 95.3765 86.6545 99.7" stroke="white" stroke-width="2" stroke-miterlimit="10" stroke-linecap="round" stroke-linejoin="round"/>
<path d="M38.7079 96.1547C37.0984 97.3652 35.4889 98.6623 33.3711 100.219C34.8112 102.294 35.8277 103.678 36.7595 105.061" stroke="white" stroke-width="2" stroke-miterlimit="10" stroke-linecap="round" stroke-linejoin="round"/>
<path d="M114.695 106.531C109.358 110.422 108.342 113.449 111.307 116.908C113.001 118.897 115.288 120.367 117.491 119.242C119.524 118.205 121.726 115.957 122.15 113.881C122.489 111.979 120.794 109.385 119.439 107.655C118.677 106.704 116.644 106.877 115.203 106.531" stroke="white" stroke-width="2" stroke-miterlimit="10" stroke-linecap="round" stroke-linejoin="round"/>
<path d="M115.119 5.79327C113.848 7.09033 112.493 8.47386 110.629 10.3762C112.747 12.6245 114.356 14.4403 116.05 16.2562C119.015 14.5268 121.895 13.4892 121.302 9.77092C120.794 6.48504 118.507 5.53386 115.542 5.79327" stroke="white" stroke-width="2" stroke-miterlimit="10" stroke-linecap="round" stroke-linejoin="round"/>
</svg>
